HIERARCHY
ROOT Hips
{
	OFFSET 0.000000 71.427986 0.000000
	CHANNELS 6 Xposition Yposition Zposition Xrotation Yrotation Zrotation
	JOINT Pelvis
	{
		OFFSET 0.000000 0.000000 0.000000
		CHANNELS 3 Xrotation Yrotation Zrotation
		JOINT LeftUpLeg
		{
			OFFSET 6.797100 -2.508499 -1.318700
			CHANNELS 3 Xrotation Yrotation Zrotation
			JOINT LeftLeg
			{
				OFFSET 0.069008 -29.241863 0.690200
				CHANNELS 3 Xrotation Yrotation Zrotation
				JOINT LeftFoot
				{
					OFFSET -0.069008 -29.568123 -0.266800
					CHANNELS 3 Xrotation Yrotation Zrotation
					JOINT LeftToeBase
					{
						OFFSET 3.145500 -8.631000 16.059900
						CHANNELS 3 Xrotation Yrotation Zrotation
						End Site
						{
							OFFSET 0.000000 18.501587 0.000000
						}
					}
				}
			}
			JOINT Left_ShortSleeve
			{
				OFFSET 0.265923 -10.480953 1.153800
				CHANNELS 3 Xrotation Yrotation Zrotation
				End Site
				{
					OFFSET 1.725763 19.823879 0.000000
				}
			}
		}
		JOINT RightUpLeg
		{
			OFFSET -6.797100 -2.508499 -1.318700
			CHANNELS 3 Xrotation Yrotation Zrotation
			JOINT RightLeg
			{
				OFFSET -0.082453 -29.241932 0.688000
				CHANNELS 3 Xrotation Yrotation Zrotation
				JOINT RightFoot
				{
					OFFSET 0.082453 -29.568058 -0.264600
					CHANNELS 3 Xrotation Yrotation Zrotation
					JOINT RightToeBase
					{
						OFFSET -3.115300 -8.682800 16.113400
						CHANNELS 3 Xrotation Yrotation Zrotation
						End Site
						{
							OFFSET 0.000000 18.567114 0.000000
						}
					}
				}
			}
			JOINT Right_ShortSleeve
			{
				OFFSET -0.265923 -10.480953 1.153800
				CHANNELS 3 Xrotation Yrotation Zrotation
				End Site
				{
					OFFSET -1.725766 19.823910 0.000000
				}
			}
		}
	}
	JOINT Spine
	{
		OFFSET 0.000000 13.368103 0.470500
		CHANNELS 3 Xrotation Yrotation Zrotation
		JOINT Spine1
		{
			OFFSET 0.147000 13.837402 0.538800
			CHANNELS 3 Xrotation Yrotation Zrotation
			JOINT Spine2
			{
				OFFSET 0.168000 16.242897 -1.435500
				CHANNELS 3 Xrotation Yrotation Zrotation
				JOINT Neck
				{
					OFFSET 0.217200 18.631500 -1.679100
					CHANNELS 3 Xrotation Yrotation Zrotation
					JOINT Head
					{
						OFFSET 0.000000 6.599396 1.385900
						CHANNELS 3 Xrotation Yrotation Zrotation
						JOINT Hat
						{
							OFFSET -0.532200 27.220596 -10.096100
							CHANNELS 3 Xrotation Yrotation Zrotation
							End Site
							{
								OFFSET 0.000000 22.029861 0.000000
							}
						}
						JOINT HairD
						{
							OFFSET -10.777400 17.437393 -1.325900
							CHANNELS 3 Xrotation Yrotation Zrotation
							JOINT HairD1
							{
								OFFSET -3.290299 -11.051193 1.062200
								CHANNELS 3 Xrotation Yrotation Zrotation
								End Site
								{
									OFFSET 0.000000 11.579437 0.000000
								}
							}
						}
						JOINT HairB
						{
							OFFSET -10.777400 17.437393 1.467900
							CHANNELS 3 Xrotation Yrotation Zrotation
							JOINT HairB1
							{
								OFFSET -1.561200 -12.956299 3.590200
								CHANNELS 3 Xrotation Yrotation Zrotation
								End Site
								{
									OFFSET 0.000000 13.534866 0.000000
								}
							}
						}
						JOINT HairA
						{
							OFFSET 9.713100 17.437393 1.467900
							CHANNELS 3 Xrotation Yrotation Zrotation
							JOINT HairA1
							{
								OFFSET 1.561200 -12.956299 3.590200
								CHANNELS 3 Xrotation Yrotation Zrotation
								End Site
								{
									OFFSET 0.000000 13.534866 0.000000
								}
							}
						}
						JOINT HairC
						{
							OFFSET 9.713100 17.437393 -1.325900
							CHANNELS 3 Xrotation Yrotation Zrotation
							JOINT HairC1
							{
								OFFSET 3.290300 -11.051193 1.062200
								CHANNELS 3 Xrotation Yrotation Zrotation
								End Site
								{
									OFFSET 0.000000 11.579437 0.000000
								}
							}
						}
					}
				}
				JOINT LeftShoulder
				{
					OFFSET 5.101800 15.108002 -2.763700
					CHANNELS 3 Xrotation Yrotation Zrotation
					JOINT LeftArm
					{
						OFFSET 9.825497 2.506317 -1.597400
						CHANNELS 3 Xrotation Yrotation Zrotation
						JOINT LeftForeArm
						{
							OFFSET 21.966244 0.000000 0.000000
							CHANNELS 3 Xrotation Yrotation Zrotation
							JOINT LeftHand
							{
								OFFSET 33.879036 0.000000 0.000000
								CHANNELS 3 Xrotation Yrotation Zrotation
								JOINT LeftHandThumb1
								{
									OFFSET 6.715286 -2.359680 3.363841
									CHANNELS 3 Xrotation Yrotation Zrotation
									JOINT LeftHandThumb2
									{
										OFFSET 2.507072 -1.447464 1.447461
										CHANNELS 3 Xrotation Yrotation Zrotation
										JOINT LeftHandThumb3
										{
											OFFSET 2.898338 -1.673355 1.673357
											CHANNELS 3 Xrotation Yrotation Zrotation
											End Site
											{
												OFFSET -0.295959 3.727692 -0.131651
											}
										}
									}
								}
								JOINT LeftHandIndex1
								{
									OFFSET 14.190811 -0.254547 3.840278
									CHANNELS 3 Xrotation Yrotation Zrotation
									JOINT LeftHandIndex2
									{
										OFFSET 3.551727 0.000000 -0.000000
										CHANNELS 3 Xrotation Yrotation Zrotation
										JOINT LeftHandIndex3
										{
											OFFSET 2.894196 0.000000 0.000000
											CHANNELS 3 Xrotation Yrotation Zrotation
											End Site
											{
												OFFSET -1.000603 2.690872 0.366626
											}
										}
									}
								}
								JOINT LeftHandMiddle1
								{
									OFFSET 13.776489 0.000000 0.000000
									CHANNELS 3 Xrotation Yrotation Zrotation
									JOINT LeftHandMiddle2
									{
										OFFSET 3.438232 0.000000 0.000000
										CHANNELS 3 Xrotation Yrotation Zrotation
										JOINT LeftHandMiddle3
										{
											OFFSET 3.691551 0.000000 0.000000
											CHANNELS 3 Xrotation Yrotation Zrotation
											End Site
											{
												OFFSET -1.082298 3.499527 0.457670
											}
										}
									}
								}
								JOINT LeftHandRing1
								{
									OFFSET 13.966164 -0.268127 -3.067488
									CHANNELS 3 Xrotation Yrotation Zrotation
									JOINT LeftHandRing2
									{
										OFFSET 3.162567 0.000000 0.000000
										CHANNELS 3 Xrotation Yrotation Zrotation
										JOINT LeftHandRing3
										{
											OFFSET 3.324348 0.000000 0.000000
											CHANNELS 3 Xrotation Yrotation Zrotation
											End Site
											{
												OFFSET -0.861900 3.184998 0.405154
											}
										}
									}
								}
								JOINT LeftHandPinky1
								{
									OFFSET 13.131393 -0.168503 -5.746925
									CHANNELS 3 Xrotation Yrotation Zrotation
									JOINT LeftHandPinky2
									{
										OFFSET 2.849182 0.000000 0.000000
										CHANNELS 3 Xrotation Yrotation Zrotation
										JOINT LeftHandPinky3
										{
											OFFSET 2.805038 0.000000 0.000000
											CHANNELS 3 Xrotation Yrotation Zrotation
											End Site
											{
												OFFSET -0.882500 2.642609 0.325652
											}
										}
									}
								}
							}
							JOINT Left_Sleeve
							{
								OFFSET 6.592125 -0.646545 0.805568
								CHANNELS 3 Xrotation Yrotation Zrotation
								End Site
								{
									OFFSET -0.000179 20.275787 -0.000000
								}
							}
						}
					}
				}
				JOINT RightShoulder
				{
					OFFSET -5.731700 15.108002 -2.763700
					CHANNELS 3 Xrotation Yrotation Zrotation
					JOINT RightArm
					{
						OFFSET -9.825497 2.506317 -1.597400
						CHANNELS 3 Xrotation Yrotation Zrotation
						JOINT RightForeArm
						{
							OFFSET -21.966242 0.000000 0.000000
							CHANNELS 3 Xrotation Yrotation Zrotation
							JOINT RightHand
							{
								OFFSET -33.879032 0.000000 0.000000
								CHANNELS 3 Xrotation Yrotation Zrotation
								JOINT RightHandThumb1
								{
									OFFSET -6.715286 -2.359680 3.363841
									CHANNELS 3 Xrotation Yrotation Zrotation
									JOINT RightHandThumb2
									{
										OFFSET -2.507072 -1.447464 1.447461
										CHANNELS 3 Xrotation Yrotation Zrotation
										JOINT RightHandThumb3
										{
											OFFSET -2.898338 -1.673355 1.673357
											CHANNELS 3 Xrotation Yrotation Zrotation
											End Site
											{
												OFFSET 0.295959 3.727692 -0.131651
											}
										}
									}
								}
								JOINT RightHandIndex1
								{
									OFFSET -14.190811 -0.254547 3.840278
									CHANNELS 3 Xrotation Yrotation Zrotation
									JOINT RightHandIndex2
									{
										OFFSET -3.551727 0.000000 -0.000000
										CHANNELS 3 Xrotation Yrotation Zrotation
										JOINT RightHandIndex3
										{
											OFFSET -2.894196 0.000000 0.000000
											CHANNELS 3 Xrotation Yrotation Zrotation
											End Site
											{
												OFFSET 1.000603 2.690872 0.366626
											}
										}
									}
								}
								JOINT RightHandMiddle1
								{
									OFFSET -13.776489 0.000000 0.000000
									CHANNELS 3 Xrotation Yrotation Zrotation
									JOINT RightHandMiddle2
									{
										OFFSET -3.438232 0.000000 0.000000
										CHANNELS 3 Xrotation Yrotation Zrotation
										JOINT RightHandMiddle3
										{
											OFFSET -3.691551 0.000000 0.000000
											CHANNELS 3 Xrotation Yrotation Zrotation
											End Site
											{
												OFFSET 1.082298 3.499527 0.457670
											}
										}
									}
								}
								JOINT RightHandRing1
								{
									OFFSET -13.966164 -0.268127 -3.067488
									CHANNELS 3 Xrotation Yrotation Zrotation
									JOINT RightHandRing2
									{
										OFFSET -3.162567 0.000000 0.000000
										CHANNELS 3 Xrotation Yrotation Zrotation
										JOINT RightHandRing3
										{
											OFFSET -3.324348 0.000000 0.000000
											CHANNELS 3 Xrotation Yrotation Zrotation
											End Site
											{
												OFFSET 0.861900 3.184998 0.405154
											}
										}
									}
								}
								JOINT RightHandPinky1
								{
									OFFSET -13.131393 -0.168503 -5.746925
									CHANNELS 3 Xrotation Yrotation Zrotation
									JOINT RightHandPinky2
									{
										OFFSET -2.849182 0.000000 0.000000
										CHANNELS 3 Xrotation Yrotation Zrotation
										JOINT RightHandPinky3
										{
											OFFSET -2.805038 0.000000 0.000000
											CHANNELS 3 Xrotation Yrotation Zrotation
											End Site
											{
												OFFSET 0.882500 2.642609 0.325652
											}
										}
									}
								}
							}
							JOINT Right_Sleeve
							{
								OFFSET -6.592125 -0.646545 0.805568
								CHANNELS 3 Xrotation Yrotation Zrotation
								End Site
								{
									OFFSET 0.000179 20.275787 -0.000000
								}
							}
						}
					}
				}
				JOINT Bind_Right_JacketString
				{
					OFFSET -3.534800 11.969597 7.200700
					CHANNELS 3 Xrotation Yrotation Zrotation
					JOINT Bind_Right_JacketString1
					{
						OFFSET -0.319900 -6.102600 2.794100
						CHANNELS 3 Xrotation Yrotation Zrotation
						End Site
						{
							OFFSET 0.000000 6.719452 0.000000
						}
					}
				}
				JOINT Bind_Left_JacketString
				{
					OFFSET 2.904800 11.969597 7.200700
					CHANNELS 3 Xrotation Yrotation Zrotation
					JOINT Bind_Left_JacketString1
					{
						OFFSET 0.364800 -5.904503 3.186800
						CHANNELS 3 Xrotation Yrotation Zrotation
						End Site
						{
							OFFSET 0.000000 6.719513 0.000000
						}
					}
				}
				JOINT HairE
				{
					OFFSET 5.915200 17.612701 -11.592200
					CHANNELS 3 Xrotation Yrotation Zrotation
					JOINT HairE1
					{
						OFFSET 0.289200 -7.171898 -1.284500
						CHANNELS 3 Xrotation Yrotation Zrotation
						End Site
						{
							OFFSET 0.000000 7.291756 0.000000
						}
					}
				}
				JOINT HairF
				{
					OFFSET -0.864800 17.612701 -11.592200
					CHANNELS 3 Xrotation Yrotation Zrotation
					JOINT HairF1
					{
						OFFSET 0.000000 -14.087097 -2.127501
						CHANNELS 3 Xrotation Yrotation Zrotation
						End Site
						{
							OFFSET 0.000000 14.246841 0.000000
						}
					}
				}
				JOINT HairG
				{
					OFFSET -8.087700 17.612701 -11.592200
					CHANNELS 3 Xrotation Yrotation Zrotation
					JOINT HairG1
					{
						OFFSET -0.293600 -6.081398 -0.910100
						CHANNELS 3 Xrotation Yrotation Zrotation
						End Site
						{
							OFFSET 0.000000 6.156120 0.000000
						}
					}
				}
			}
		}
	}
	JOINT Pouch
	{
		OFFSET 0.000000 4.394501 10.847300
		CHANNELS 3 Xrotation Yrotation Zrotation
		End Site
		{
			OFFSET 0.000000 21.880577 0.000000
		}
	}
	JOINT Bag
	{
		OFFSET -13.229000 4.813004 -0.593300
		CHANNELS 3 Xrotation Yrotation Zrotation
		End Site
		{
			OFFSET 0.000000 21.880577 0.000000
		}
	}
	JOINT OccupyGuyFacialAnim_Joint
	{
		OFFSET 1.000000 -70.206398 -1.655000
		CHANNELS 3 Xrotation Yrotation Zrotation
		End Site
		{
			OFFSET 0.000000 21.880577 0.000000
		}
	}
}
MOTION
Frames: 5
Frame Time: 0.033333
-0.108691 70.915314 1.300948 -3.739939 -1.898877 -3.261603 0.000000 0.000000 0.000000 -8.971135 15.122034 9.858231 13.232865 1.945541 4.203771 -1.488328 0.721124 -7.483915 0.000000 0.000000 0.000000 0.000001 0.000000 0.000000 4.000046 -10.253024 4.217882 5.869152 -9.797901 -3.276772 -5.584664 -1.685577 3.131914 0.000000 -0.000000 0.000000 -0.000000 0.000001 -0.000000 3.304407 1.533833 2.453191 1.151890 0.339457 1.552798 1.126015 0.361543 1.555886 5.626310 -0.078522 0.452619 -7.563294 1.376622 -0.082477 0.000000 -0.000000 -0.000000 0.000000 -0.000000 -0.000000 0.000000 -0.000000 -0.000000 0.000000 -0.000000 -0.000000 0.000000 0.000000 -0.000000 0.000000 -0.000000 -0.000000 0.000000 0.000000 -0.000000 0.000000 -0.000000 -0.000000 0.000000 -0.000000 -0.000000 1.049451 -17.442076 -12.319429 3.893445 -19.997163 -69.773272 -0.000003 -1.414129 0.000004 -33.230728 -1.383700 -6.199437 -0.663004 2.160315 4.832483 11.853559 25.421597 17.058315 -0.000000 0.000003 0.000002 -0.408385 -0.915737 -7.570075 0.268822 1.755914 -17.406725 0.000001 0.000000 -0.000000 -0.076311 2.665782 -15.696850 0.268783 1.755798 -17.405511 0.000001 0.000000 0.000001 0.136904 3.641760 -21.133548 0.386622 2.094789 -20.911891 -0.000001 0.000000 0.000002 0.968588 5.535031 -27.131530 0.268810 1.755887 -17.406341 -0.000000 -0.000000 -0.000001 0.000001 0.000000 -0.000001 1.203185 15.343663 14.705947 13.163649 27.552534 58.782753 -0.000004 6.703272 0.000005 -20.179039 -0.518768 6.780818 -1.665256 -0.174477 -4.219033 12.710955 -29.825329 -16.130935 -0.000002 0.000002 0.000003 -0.390350 1.213573 6.802446 0.214479 -1.398446 17.438062 -0.000003 0.000001 -0.000001 -0.136229 -2.205111 14.998882 0.214446 -1.398347 17.436880 0.000002 -0.000002 -0.000001 0.030608 -3.075749 20.451009 0.308437 -1.668289 20.948520 0.000003 -0.000000 0.000001 0.789940 -4.864833 26.476801 0.214472 -1.398418 17.437700 -0.000003 0.000000 0.000001 0.000000 -0.000000 -0.000001 0.000000 0.000000 0.000000 0.000000 0.000000 0.000000 0.000000 0.000000 0.000000 0.000000 0.000000 0.000000 0.000000 0.000000 0.000000 0.000000 0.000000 0.000000 0.000000 0.000000 0.000000 0.000000 0.000000 0.000000 0.000000 0.000000 0.000000 0.000000 0.000000 0.000000 0.000000 0.000000 0.000000 0.000000 0.000000 0.000000 0.000000 0.000000 0.000000 
-0.114193 70.902885 1.214354 -3.770055 -2.005508 -3.238639 -0.000001 0.000000 0.000000 -9.002793 15.035883 9.827764 13.270964 2.100973 4.207653 -1.435609 0.750321 -7.490178 0.000000 -0.000001 -0.000000 0.000001 -0.000002 -0.000001 3.642796 -10.244304 4.112711 6.442160 -9.728788 -3.233012 -5.782163 -1.642484 3.119755 0.000000 -0.000002 -0.000000 -0.000000 0.000000 -0.000000 3.795574 1.656467 2.437045 1.132917 0.352655 1.529904 1.106862 0.375212 1.532236 5.772540 -0.062802 0.455973 -6.617057 1.470159 -0.170977 -0.000000 -0.000000 0.000000 -0.000000 -0.000000 0.000000 -0.000000 -0.000000 -0.000000 -0.000000 -0.000000 0.000000 -0.000000 0.000000 0.000000 -0.000000 -0.000000 0.000000 -0.000000 0.000000 0.000000 -0.000000 -0.000000 0.000000 -0.000000 -0.000000 0.000000 1.219308 -17.353556 -12.421764 4.983181 -19.163317 -68.785852 0.000000 -4.712681 0.000010 -33.049994 -0.351970 -5.481832 0.129200 2.114882 5.784854 11.411445 24.648956 17.264848 0.000001 0.000002 -0.000001 -0.515822 -1.816203 -7.516189 0.288631 1.817875 -18.042081 0.000001 -0.000000 -0.000000 -0.115864 2.497211 -15.418594 0.263862 1.740033 -17.244182 0.000002 0.000001 -0.000001 0.309661 4.085853 -20.981610 0.376356 2.067743 -20.629224 -0.000001 0.000000 -0.000003 1.380618 6.368778 -26.510136 0.251102 1.698402 -16.818846 -0.000000 -0.000001 -0.000003 -0.000004 -0.000000 0.000000 1.143312 15.289875 14.587855 12.943588 28.095047 58.910518 0.000013 6.107457 -0.000008 -19.558802 -0.039832 6.864645 -2.075406 -0.288791 -4.371909 12.514997 -29.773109 -16.483652 0.000002 0.000000 0.000001 -0.534240 1.744461 7.834440 0.222978 -1.425206 17.783028 -0.000004 0.000001 -0.000001 -0.164204 -2.131848 15.330192 0.206532 -1.372894 17.109538 0.000002 -0.000002 0.000001 0.097324 -3.239956 20.022515 0.295073 -1.632946 20.484349 -0.000001 -0.000001 0.000002 0.930618 -5.160655 26.057156 0.203370 -1.362595 16.977048 -0.000001 0.000002 -0.000003 0.000003 -0.000000 0.000000 0.000000 0.000000 0.000000 0.000000 0.000000 0.000000 0.000000 0.000000 0.000000 0.000000 0.000000 0.000000 0.000000 0.000000 0.000000 0.000000 0.000000 0.000000 0.000000 0.000000 0.000000 0.000000 0.000000 0.000000 0.000000 0.000000 0.000000 0.000000 0.000000 0.000000 -0.000001 0.000000 0.000000 -0.000001 0.000000 0.000000 -0.000001 0.000000 0.000000 
-0.121922 70.889992 1.084102 -3.819842 -2.135592 -3.211657 -0.000000 0.000000 0.000000 -9.032219 14.950835 9.796631 13.272085 2.273005 4.198975 -1.326366 0.779623 -7.482624 0.000000 -0.000001 -0.000000 -0.000000 -0.000000 -0.000000 3.231164 -10.217291 3.988454 7.074200 -9.659472 -3.163483 -5.968803 -1.598649 3.079866 0.000000 -0.000000 -0.000000 0.000000 -0.000001 0.000000 4.481029 1.797730 2.397186 1.125722 0.370465 1.518730 1.099387 0.394310 1.519635 6.029678 -0.062914 0.455948 -5.406614 1.498122 -0.318907 -0.000000 -0.000000 -0.000000 -0.000000 -0.000000 -0.000000 -0.000000 -0.000000 -0.000000 -0.000000 -0.000000 -0.000000 -0.000000 -0.000000 -0.000000 -0.000000 -0.000000 -0.000000 -0.000000 -0.000000 -0.000000 -0.000000 -0.000000 -0.000000 -0.000000 -0.000000 -0.000000 1.398877 -17.270588 -12.527609 5.402122 -18.544233 -67.999895 -0.000011 -6.859745 -0.000005 -32.908080 0.126782 -5.133183 1.004087 2.080432 6.856249 10.940385 23.821007 17.477243 -0.000000 0.000001 0.000001 -0.623741 -2.782421 -7.422727 0.308923 1.879001 -18.671251 -0.000000 0.000001 -0.000002 -0.156368 2.308590 -15.045266 0.257407 1.719093 -17.030201 0.000002 0.000001 -0.000003 0.500204 4.583093 -20.760239 0.363449 2.033144 -20.268484 -0.000001 0.000000 -0.000002 1.816679 7.313387 -25.719866 0.229289 1.624526 -16.066579 -0.000000 -0.000001 0.000001 -0.000002 0.000000 -0.000000 1.070609 15.226182 14.456784 12.844391 28.789282 58.925913 0.000006 5.661297 0.000002 -18.939228 0.366538 6.910651 -2.494478 -0.405352 -4.573194 12.306513 -29.717996 -16.854679 -0.000004 0.000000 0.000003 -0.723022 2.302363 9.080696 0.234819 -1.461601 18.253129 -0.000000 -0.000000 -0.000003 -0.196015 -2.064786 15.822304 0.199540 -1.349960 16.815050 0.000002 -0.000002 0.000001 0.167799 -3.425078 19.672907 0.281762 -1.596885 20.012157 0.000002 0.000002 -0.000003 1.090988 -5.500861 25.780518 0.193829 -1.330959 16.571280 0.000003 0.000001 0.000001 -0.000001 -0.000000 0.000001 0.000000 0.000000 -0.000000 0.000000 -0.000000 -0.000000 0.000000 0.000000 0.000000 0.000000 0.000000 0.000000 0.000000 0.000000 -0.000000 0.000000 -0.000000 0.000000 0.000000 0.000000 0.000000 0.000000 0.000000 0.000000 0.000000 0.000000 -0.000000 0.000000 -0.000000 0.000000 -0.000000 0.000000 0.000000 -0.000000 0.000000 0.000000 -0.000000 0.000000 0.000000 
-0.132985 70.876282 0.899462 -3.877948 -2.241874 -3.189410 0.000000 0.000000 -0.000000 -9.096162 14.867049 9.781025 13.239126 2.407589 4.171411 -1.145794 0.808884 -7.449175 0.000000 0.000002 -0.000000 0.000000 -0.000001 -0.000000 2.760786 -10.178960 3.875980 7.741892 -9.622799 -3.092081 -6.128100 -1.555321 3.008856 0.000000 0.000000 -0.000000 -0.000000 -0.000001 0.000000 5.396899 1.908919 2.345738 1.140453 0.386136 1.518986 1.113842 0.411672 1.518319 6.397570 -0.082570 0.443544 -4.045992 1.436104 -0.538001 0.000000 0.000000 0.000000 0.000000 0.000000 0.000000 0.000000 0.000000 0.000000 0.000000 0.000000 0.000000 0.000000 0.000000 0.000000 0.000000 0.000000 0.000000 0.000000 0.000000 0.000000 0.000000 0.000000 0.000000 0.000000 0.000000 0.000000 1.579881 -17.212147 -12.667816 5.694353 -17.928085 -67.210824 0.000003 -8.936028 0.000012 -32.895554 0.415199 -4.822228 1.932570 2.070206 7.993766 10.454040 22.961544 17.687986 0.000002 -0.000001 -0.000004 -0.728595 -3.786434 -7.309353 0.329650 1.939226 -19.293406 0.000000 0.000000 -0.000000 -0.195795 2.108151 -14.617742 0.250132 1.695182 -16.786119 0.000001 0.000001 -0.000003 0.698130 5.111789 -20.500072 0.349193 1.994144 -19.862772 -0.000001 0.000001 -0.000001 2.248329 8.329602 -24.834792 0.205939 1.541164 -15.221179 -0.000000 -0.000000 -0.000001 -0.000000 0.000000 0.000000 1.000083 15.212307 14.274711 12.686943 29.422348 58.882924 -0.000004 5.383758 -0.000001 -18.440860 0.749465 6.897528 -2.920492 -0.522320 -4.813019 12.089761 -29.660240 -17.238776 0.000000 0.000000 -0.000001 -0.959975 2.877372 10.496521 0.249513 -1.505406 18.820716 -0.000001 0.000001 0.000000 -0.231751 -2.002972 16.440723 0.193255 -1.329002 16.546413 0.000002 -0.000001 -0.000001 0.241118 -3.626649 19.385388 0.268580 -1.560222 19.533612 0.000001 -0.000002 0.000002 1.267778 -5.875539 25.617053 0.185495 -1.302595 16.208205 0.000001 0.000002 0.000004 0.000001 -0.000000 0.000001 0.000001 -0.000000 -0.000000 0.000001 -0.000000 -0.000000 0.000001 -0.000000 -0.000000 0.000001 -0.000000 -0.000000 0.000001 -0.000000 -0.000000 0.000001 -0.000000 -0.000000 0.000001 -0.000000 -0.000000 0.000001 -0.000000 -0.000000 0.000001 -0.000000 -0.000000 0.000001 -0.000000 -0.000000 0.000000 0.000000 -0.000000 0.000000 0.000000 -0.000000 0.000000 0.000000 -0.000000 
-0.146561 70.858810 0.652221 -3.937843 -2.321164 -3.165409 -0.000000 -0.000000 -0.000000 -9.214909 14.777596 9.774287 13.186566 2.508292 4.126139 -0.892903 0.837275 -7.387624 -0.000000 -0.000001 -0.000000 -0.000000 -0.000001 -0.000000 2.142329 -10.143604 3.769576 8.585826 -9.616611 -3.038691 -6.320499 -1.516718 2.891618 -0.000000 -0.000000 -0.000000 -0.000000 -0.000001 -0.000000 6.582944 1.979423 2.275078 1.188251 0.397323 1.520826 1.161378 0.424305 1.519996 6.888881 -0.109046 0.432455 -2.680791 1.334076 -0.717067 0.000001 0.000000 0.000000 0.000001 0.000000 0.000000 0.000001 0.000000 0.000000 0.000001 0.000000 0.000000 -0.000000 0.000000 0.000000 0.000001 0.000000 0.000000 -0.000000 0.000000 0.000000 0.000001 0.000000 0.000000 0.000001 0.000000 0.000000 1.759231 -17.216303 -12.841767 5.990026 -17.268769 -66.358710 0.000004 -11.182028 0.000024 -33.051880 0.515396 -4.405033 2.883319 2.092385 9.144276 9.965739 22.094436 17.890811 -0.000001 -0.000001 -0.000005 -0.828417 -4.800152 -7.195265 0.350784 1.998531 -19.908449 0.000002 -0.000000 -0.000000 -0.232752 1.904289 -14.176946 0.242738 1.670501 -16.534416 0.000001 0.000000 0.000001 0.894294 5.649754 -20.231579 0.334815 1.953903 -19.445318 -0.000001 -0.000000 -0.000003 2.653820 9.374636 -23.928219 0.183265 1.455298 -14.353998 0.000001 -0.000001 -0.000002 0.000000 0.000000 -0.000000 0.948223 15.308221 14.007156 12.058808 29.952435 58.925142 -0.000004 4.780463 -0.000004 -18.131932 1.304953 6.844357 -3.351453 -0.638032 -5.081402 11.869076 -29.600230 -17.630692 -0.000001 -0.000002 -0.000001 -1.246021 3.459596 12.037246 0.266543 -1.554434 19.458232 -0.000001 0.000001 0.000000 -0.271292 -1.945424 17.150967 0.187505 -1.309490 16.296521 0.000001 -0.000001 -0.000001 0.316324 -3.840243 19.143125 0.255574 -1.523092 19.050327 0.000003 -0.000000 0.000002 1.457539 -6.274865 25.536884 0.178012 -1.276578 15.875690 0.000001 -0.000003 0.000000 0.000002 0.000000 0.000000 0.000000 0.000000 -0.000000 0.000000 0.000000 -0.000000 0.000000 0.000000 0.000000 0.000000 0.000000 0.000000 0.000000 0.000000 -0.000000 0.000000 0.000000 0.000000 0.000000 0.000000 0.000000 0.000000 0.000000 0.000000 0.000000 0.000000 -0.000000 0.000000 0.000000 0.000000 -0.000000 -0.000000 -0.000000 -0.000000 -0.000000 -0.000000 -0.000000 -0.000000 -0.000000 
